<svg width="68" height="46" viewBox="0 0 68 46" fill="none" xmlns="http://www.w3.org/2000/svg">
<rect x="3.67578" y="6.86353" width="60.6486" height="36.3636" rx="4" fill="#718C69" stroke="#1E2023" stroke-width="2"/>
<path d="M11.0271 2.77271H29.8978C32.1634 2.77271 34.0001 4.60221 34.0001 6.85902V43.2272H11.0271V2.77271Z" fill="white"/>
<path fill-rule="evenodd" clip-rule="evenodd" d="M10.1082 1.86353H29.8348C32.6427 1.86353 34.919 4.1383 34.919 6.94438V44.1363H10.1082V1.86353ZM12.1418 3.89587V42.1039H32.8853V6.94438C32.8853 5.26073 31.5195 3.89587 29.8348 3.89587H12.1418Z" fill="#1E2023"/>
<path d="M11.0271 37.7727H28.5455C31.558 37.7727 34.0001 40.2148 34.0001 43.2273H11.0271V37.7727Z" fill="#667085" stroke="#1E2023" stroke-width="2"/>
<path d="M56.9729 2.77271H38.1022C35.8366 2.77271 33.9999 4.60221 33.9999 6.85902V43.2272H56.9729V2.77271Z" fill="white"/>
<path fill-rule="evenodd" clip-rule="evenodd" d="M57.8918 1.86353H38.1652C35.3573 1.86353 33.081 4.1383 33.081 6.94438V44.1363H57.8918V1.86353ZM55.8582 3.89587V42.1039H35.1147V6.94438C35.1147 5.26073 36.4805 3.89587 38.1652 3.89587H55.8582Z" fill="#1E2023"/>
<path d="M56.9729 37.7727H39.4545C36.442 37.7727 33.9999 40.2148 33.9999 43.2273H56.9729V37.7727Z" fill="#667085" stroke="#1E2023" stroke-width="2"/>
<path fill-rule="evenodd" clip-rule="evenodd" d="M29.8648 10.5H15.6216V8.22729H29.8648V10.5Z" fill="#1E2023"/>
<path fill-rule="evenodd" clip-rule="evenodd" d="M29.8648 16.409H15.6216V14.5908H29.8648V16.409Z" fill="#1E2023"/>
<path fill-rule="evenodd" clip-rule="evenodd" d="M29.8648 22.7728H15.6216V20.9546H29.8648V22.7728Z" fill="#1E2023"/>
<path fill-rule="evenodd" clip-rule="evenodd" d="M29.8648 29.5908H15.6216V27.3181H29.8648V29.5908Z" fill="#1E2023"/>
<path fill-rule="evenodd" clip-rule="evenodd" d="M52.8377 10.5H38.5945V8.22729H52.8377V10.5Z" fill="#1E2023"/>
<path fill-rule="evenodd" clip-rule="evenodd" d="M52.8377 16.409H38.5945V14.5908H52.8377V16.409Z" fill="#1E2023"/>
<path fill-rule="evenodd" clip-rule="evenodd" d="M52.8377 22.7728H38.5945V20.9546H52.8377V22.7728Z" fill="#1E2023"/>
<path fill-rule="evenodd" clip-rule="evenodd" d="M52.8377 29.5908H38.5945V27.3181H52.8377V29.5908Z" fill="#1E2023"/>
</svg>
