<svg width="56" height="56" viewBox="0 0 56 56" fill="none" xmlns="http://www.w3.org/2000/svg">
<rect width="56" height="56" rx="28" fill="#718C69"/>
<g clip-path="url(#clip0_193_434)">
<path fill-rule="evenodd" clip-rule="evenodd" d="M28 16C28.0001 16 28.0002 16 28.0002 17.3333L28.0002 18.6667L27.8996 18.6668C27.8329 18.667 27.7343 18.6673 27.6078 18.6679C27.3548 18.669 26.9902 18.6714 26.5453 18.6762C25.655 18.6857 24.4455 18.7047 23.1665 18.7427C21.8853 18.7808 20.545 18.8376 19.3897 18.9219C18.2056 19.0083 17.3257 19.1168 16.8873 19.2323C16.4891 19.3467 16.1277 19.5634 15.8391 19.8609C15.5576 20.1511 15.355 20.5083 15.2504 20.8983C14.851 23.1298 14.6557 25.3931 14.6669 27.6601L14.6669 27.675C14.6526 29.9513 14.8465 32.2241 15.2462 34.465C15.3617 34.8352 15.5663 35.1717 15.8423 35.445C16.1315 35.7312 16.4895 35.9382 16.8817 36.0463C17.3182 36.1623 18.2005 36.2714 19.3897 36.3581C20.545 36.4424 21.8853 36.4992 23.1665 36.5373C24.4455 36.5753 25.655 36.5943 26.5453 36.6038C26.9902 36.6086 27.3548 36.611 27.6078 36.6122C27.7343 36.6127 27.8329 36.613 27.8996 36.6132H28.1008C28.1676 36.613 28.2661 36.6127 28.3926 36.6122C28.6456 36.611 29.0102 36.6086 29.4551 36.6038C30.3455 36.5943 31.5549 36.5753 32.8339 36.5373C34.1151 36.4992 35.4554 36.4424 36.6107 36.3581C37.7949 36.2717 38.6747 36.1632 39.1131 36.0477C39.5113 35.9333 39.8728 35.7166 40.1614 35.4191C40.4429 35.1289 40.6454 34.7718 40.7501 34.3817C41.1463 32.1671 41.3416 29.9212 41.3336 27.6715L41.3335 27.6583C41.3479 25.3741 41.1526 23.0934 40.7501 20.845C40.6454 20.4549 40.4429 20.0978 40.1614 19.8076C39.8761 19.5134 39.5196 19.2983 39.1268 19.1829C38.6735 19.0763 37.7904 18.978 36.6191 18.9C35.4615 18.8229 34.1193 18.771 32.8374 18.7362C31.5574 18.7014 30.3472 18.6841 29.4564 18.6754C29.0112 18.671 28.6464 18.6688 28.3931 18.6677L28.1011 18.6668L28.0002 18.6667L28.0002 17.3333C28.0002 16 28.0001 16 28 16L28.1065 16.0001C28.1752 16.0003 28.2758 16.0006 28.4046 16.0011C28.662 16.0022 29.0317 16.0044 29.4824 16.0088C30.3832 16.0176 31.6097 16.0352 32.9097 16.0705C34.2078 16.1057 35.589 16.1588 36.7963 16.2392C37.9692 16.3173 39.0822 16.4269 39.7832 16.5981C39.7988 16.6019 39.8144 16.606 39.8299 16.6104C40.6833 16.8518 41.4579 17.3142 42.0755 17.9509C42.693 18.5875 43.1316 19.3758 43.347 20.2363C43.3542 20.2651 43.3604 20.2941 43.3657 20.3233C43.8029 22.7469 44.0153 25.2058 44.0002 27.6684C44.0085 30.0943 43.7962 32.5159 43.3657 34.9033C43.3604 34.9325 43.3542 34.9616 43.347 34.9904C43.1316 35.8508 42.693 36.6392 42.0755 37.2758C41.4579 37.9124 40.6833 38.3749 39.8299 38.6163L39.8114 38.6214C39.0998 38.8117 37.9771 38.9322 36.8047 39.0177C35.595 39.1059 34.212 39.1642 32.9132 39.2027C31.6122 39.2414 30.385 39.2607 29.4836 39.2703C29.0327 39.2752 28.6627 39.2776 28.4051 39.2788C28.2763 39.2794 28.1755 39.2797 28.1067 39.2798L28.0008 39.28L27.8937 39.2798C27.8249 39.2797 27.7241 39.2794 27.5953 39.2788C27.3377 39.2776 26.9677 39.2752 26.5168 39.2703C25.6155 39.2607 24.3882 39.2414 23.0873 39.2027C21.7884 39.1642 20.4054 39.1059 19.1957 39.0177C18.0233 38.9322 16.9006 38.8117 16.1891 38.6214L16.1817 38.6194C15.3456 38.3906 14.5826 37.9501 13.9665 37.3403C13.3504 36.7306 12.902 35.9722 12.6645 35.1385C12.6525 35.0962 12.6425 35.0533 12.6347 35.01C12.1976 32.5867 11.9852 30.1282 12.0002 27.6658C11.9886 25.2218 12.201 22.7819 12.6347 20.3767C12.64 20.3475 12.6462 20.3184 12.6534 20.2896C12.8688 19.4292 13.3074 18.6408 13.925 18.0042C14.5425 17.3676 15.3171 16.9051 16.1706 16.6637L16.1891 16.6586C16.9006 16.4683 18.0233 16.3478 19.1957 16.2623C20.4054 16.174 21.7884 16.1159 23.0873 16.0773C24.3882 16.0386 25.6155 16.0193 26.5168 16.0097C26.9677 16.0048 27.3377 16.0024 27.5953 16.0012C27.7241 16.0006 27.8249 16.0003 27.8937 16.0002L28 16Z" fill="white"/>
<path fill-rule="evenodd" clip-rule="evenodd" d="M24.3296 22.1542C24.74 21.9155 25.2464 21.913 25.6591 22.1477L33.3258 26.5077C33.7426 26.7447 34 27.1873 34 27.6667C34 28.1462 33.7426 28.5887 33.3258 28.8257L25.6591 33.1857C25.2464 33.4205 24.74 33.418 24.3296 33.1792C23.9192 32.9405 23.6667 32.5015 23.6667 32.0267V23.3067C23.6667 22.8319 23.9192 22.3929 24.3296 22.1542ZM26.3334 25.5988V29.7346L29.9695 27.6667L26.3334 25.5988Z" fill="white"/>
</g>
<defs>
<clipPath id="clip0_193_434">
<rect width="32" height="32" fill="white" transform="translate(12 12)"/>
</clipPath>
</defs>
</svg>
