<svg width="56" height="56" viewBox="0 0 56 56" fill="none" xmlns="http://www.w3.org/2000/svg">
<rect width="56" height="56" rx="28" fill="#718C69"/>
<path fill-rule="evenodd" clip-rule="evenodd" d="M21.3334 15.9999C18.3879 15.9999 16 18.3877 16 21.3333V34.6666C16 37.6121 18.3879 39.9999 21.3334 39.9999H34.6667C37.6122 39.9999 40 37.6121 40 34.6666V21.3333C40 18.3877 37.6122 15.9999 34.6667 15.9999H21.3334ZM13.3334 21.3333C13.3334 16.915 16.9151 13.3333 21.3334 13.3333H34.6667C39.085 13.3333 42.6667 16.915 42.6667 21.3333V34.6666C42.6667 39.0849 39.085 42.6666 34.6667 42.6666H21.3334C16.9151 42.6666 13.3334 39.0849 13.3334 34.6666V21.3333Z" fill="white"/>
<path fill-rule="evenodd" clip-rule="evenodd" d="M28.6444 23.9856C27.8122 23.8622 26.9622 24.0043 26.2154 24.3918C25.4686 24.7793 24.863 25.3924 24.4847 26.1439C24.1065 26.8955 23.9748 27.7471 24.1085 28.5778C24.2421 29.4084 24.6343 30.1758 25.2292 30.7707C25.8242 31.3657 26.5915 31.7578 27.4222 31.8915C28.2528 32.0252 29.1045 31.8935 29.856 31.5152C30.6075 31.137 31.2207 30.5314 31.6082 29.7846C31.9957 29.0378 32.1378 28.1878 32.0144 27.3556C31.8885 26.5067 31.4929 25.7207 30.8861 25.1139C30.2793 24.507 29.4933 24.1115 28.6444 23.9856ZM24.9872 22.0248C26.2319 21.379 27.6485 21.1421 29.0356 21.3478C30.4504 21.5576 31.7603 22.2169 32.7717 23.2283C33.7831 24.2397 34.4424 25.5495 34.6522 26.9644C34.8579 28.3515 34.621 29.7681 33.9752 31.0128C33.3293 32.2574 32.3075 33.2668 31.0549 33.8972C29.8024 34.5276 28.383 34.7471 26.9985 34.5243C25.6141 34.3015 24.3352 33.6479 23.3436 32.6564C22.3521 31.6648 21.6984 30.3859 21.4757 29.0014C21.2529 27.617 21.4723 26.1976 22.1028 24.945C22.7332 23.6925 23.7425 22.6707 24.9872 22.0248Z" fill="white"/>
</svg>
