<svg width="56" height="56" viewBox="0 0 56 56" fill="none" xmlns="http://www.w3.org/2000/svg">
<rect width="56" height="56" rx="28" fill="#718C69"/>
<path d="M14.3334 27.4133C14.3334 24.0666 14.3355 21.6571 14.5823 19.8221C14.8252 18.0159 15.2885 16.917 16.1028 16.103C16.9174 15.2888 18.0166 14.8255 19.8227 14.5825C21.6575 14.3356 24.0668 14.3333 27.4134 14.3333H28.5867C31.9333 14.3333 34.3429 14.3354 36.1778 14.5821C37.984 14.825 39.0829 15.2883 39.8969 16.1027C40.7112 16.9173 41.1745 18.0165 41.4175 19.8225C41.6644 21.6574 41.6667 24.0667 41.6667 27.4133V28.5866C41.6667 31.9332 41.6646 34.3428 41.4178 36.1777C41.1749 37.9839 40.7116 39.0828 39.8973 39.8968C39.0827 40.711 37.9835 41.1744 36.1774 41.4174C34.3426 41.6642 31.9332 41.6666 28.5867 41.6666H27.4134C24.0668 41.6666 21.6572 41.6645 19.8222 41.4177C18.0161 41.1748 16.9171 40.7115 16.1031 39.8971C15.2889 39.0826 14.8256 37.9834 14.5826 36.1773C14.3357 34.3425 14.3334 31.9331 14.3334 28.5866V27.4133Z" stroke="white" stroke-width="2"/>
<path d="M28.948 34.6667C22.6422 34.6667 18.8168 30.1585 18.6666 22.6667H21.8606C21.9601 28.1704 24.389 30.5023 26.2519 30.9821V22.6667H29.3122V27.4162C31.1087 27.211 32.9891 25.0509 33.6214 22.6667H36.6346C36.1516 25.5981 34.1044 27.7582 32.6581 28.6492C34.1062 29.3701 36.4346 31.2557 37.3333 34.6667H34.0223C33.3236 32.387 31.6101 30.6211 29.314 30.3808V34.6667H28.948Z" fill="white"/>
</svg>
